<?xml version="1.0" standalone="no"?>
<!DOCTYPE svg PUBLIC "-//W3C//DTD SVG 20010904//EN"
 "http://www.w3.org/TR/2001/REC-SVG-20010904/DTD/svg10.dtd">
<svg version="1.0" xmlns="http://www.w3.org/2000/svg"
 width="1280.000000pt" height="640.000000pt" viewBox="0 0 1280.000000 640.000000"
 preserveAspectRatio="xMidYMid meet">
<g transform="translate(0.000000,640.000000) scale(0.100000,-0.100000)"
fill="#000000" stroke="none">
<path d="M9880 5760 c-452 -35 -774 -93 -1680 -299 -993 -225 -1408 -283
-1915 -267 -407 13 -608 47 -1337 231 -439 110 -609 146 -913 195 -649 104
-997 140 -1380 140 -514 0 -894 -63 -1900 -317 -121 -30 -335 -81 -475 -112
l-255 -57 -6 -94 c-21 -335 -22 -394 -5 -520 32 -234 45 -262 235 -513 210
-279 234 -330 296 -612 142 -656 415 -1538 591 -1914 197 -419 624 -725 1239
-886 285 -75 523 -100 883 -92 547 12 900 100 1232 306 434 270 812 762 1138
1481 133 295 149 344 272 850 58 242 96 361 150 478 51 108 80 146 133 175 40
21 53 22 237 20 108 0 214 -6 236 -12 105 -28 203 -156 294 -385 16 -41 59
-186 95 -322 232 -870 514 -1450 903 -1855 374 -391 871 -624 1512 -710 139
-19 517 -16 659 5 289 42 532 115 756 226 559 276 925 721 1128 1370 55 175
100 354 177 705 213 962 274 1118 519 1305 81 63 100 146 84 385 -9 130 -7
190 12 335 6 43 3 69 -14 120 -38 114 -90 149 -275 186 -143 29 -271 64 -541
150 -268 86 -423 128 -585 158 -211 40 -662 114 -800 131 -145 19 -545 27
-700 15z m-6125 -411 c390 -32 866 -164 1208 -335 349 -175 555 -403 634 -701
20 -78 27 -129 30 -255 8 -239 -23 -445 -112 -753 -75 -260 -249 -718 -365
-962 -288 -606 -725 -1014 -1285 -1201 -240 -80 -449 -112 -737 -112 -366 0
-771 76 -1015 190 -291 136 -535 383 -698 707 -72 143 -106 234 -165 438 -189
656 -273 1171 -274 1680 0 276 8 348 55 490 77 232 233 401 483 524 211 104
437 164 833 221 568 81 1001 103 1408 69z m5985 11 c235 -11 334 -20 620 -56
516 -64 758 -120 997 -234 277 -131 436 -306 519 -570 76 -239 53 -854 -52
-1392 -64 -334 -186 -797 -259 -987 -180 -471 -510 -815 -916 -955 -160 -54
-416 -106 -626 -127 -173 -17 -519 -7 -668 20 -440 78 -812 268 -1116 571
-264 263 -444 558 -637 1046 -331 837 -411 1315 -285 1697 88 266 278 468 596
633 245 127 658 259 982 313 122 21 316 39 460 44 44 2 103 4 130 5 28 1 142
-3 255 -8z"/>
</g>
</svg>
